<svg width="26" height="29" fill="none" xmlns="http://www.w3.org/2000/svg"><path fill-rule="evenodd" clip-rule="evenodd" d="M19.183 24.68c-.359-1.282-1.43-2.787-2.263-4.412l2.263 4.412Zm2.014-.147c-1.19-1.737-1.906-3.715-2.622-5.693-.594-.576-1.068-.335-1.54-.094-.828.714-1.657.843-.708 1.53 1.19 1.738 2.024 3.363 2.621 5.109l.947-.482c.473-.24.59-.593 1.302-.37Zm-5.111-5.89c-.36-1.282-1.43-2.786-2.264-4.412l2.264 4.412Zm-3.217-6.27c-.24-1.048-1.43-2.785-2.144-4.179l2.264 4.412-.12-.232Zm2.014-.146c-1.07-1.505-1.787-3.482-2.622-5.693-.475-.344-.948-.103-1.422.138-.827.714-1.656.843-.706 1.531a20.788 20.788 0 0 1 2.62 5.108l.947-.482c.354-.473.59-.593 1.183-.602Zm-5.11-5.89c-.24-1.05-1.43-2.786-2.145-4.18L9.89 6.57l-.119-.232Zm2.013-.147C10.716 4.686 9.999 2.708 9.164.498 8.689.154 8.215.395 7.742.635c-.827.714-1.776.611-.707 1.531a20.79 20.79 0 0 1 2.621 5.108c.237-.12.71-.36.828-.714.473-.24.71-.36 1.302-.37Zm-.456 6.674c-.948-.103-1.66-.326-2.608-.43.949.104 1.541.095 2.608.43-1.423-.447-2.49-.782-3.794-.997 1.067.335 2.016.438 3.439.885-1.543-.679-2.847-.894-4.033-1.461 1.067.335 2.135.67 3.677 1.35-1.306-.8-2.729-1.247-4.152-1.694 1.423.447 2.965 1.126 4.863 1.917.356.112.356.112 0 0Zm-.473.241s-.236.12-.356-.112c-1.777.026-3.318-.068-4.739.07 1.304.215 2.725.077 4.147-.061-1.422.138-2.606.155-3.672.405 1.185-.018 2.606-.155 4.028-.293-1.185.017-2.25.267-3.317.516 1.422-.138 2.488-.387 3.672-.404l.237-.12Zm.715 1.393c-.473.241-.828.714-1.537 1.075.473-.24.827-.713 1.537-1.075-.71.362-1.537 1.075-2.247 1.437.71-.362 1.3-.955 2.01-1.316-.946.481-1.893.963-2.72 1.677.59-.593 1.537-1.075 2.484-1.557l-2.84 1.445c.946-.481 2.01-1.316 3.194-1.918.236-.12.356.112.119.232Zm.119.232-.237.12c-.945 1.067-1.653 2.013-2.125 2.84.472-.827 1.18-1.773 1.771-2.366-.471.826-1.062 1.42-1.534 2.245.472-.826 1.18-1.772 1.652-2.598-.472.826-.707 1.531-1.061 2.004.354-.473.826-1.299 1.297-2.124-.235.705-.589 1.178-.706 1.53.354-.472.352-1.057.706-1.53l.237-.12Zm.59-.593.474-.24c.12.231.12.231.475.343 1.19 1.737 2.024 3.362 2.62 5.108l.947-.482c.355-.473.591-.593 1.184-.602-1.07-1.505-1.787-3.483-2.623-5.693-.475-.344-.948-.103-1.421.138-.591.594-1.183.602-1.301.955-.12-.232-.475-.344-.594-.576-.12-.232-.475-.344-1.069-.92-1.542-.68-4.033-1.462-5.337-1.677.358.697 2.256 1.488 3.798 2.167-1.54-.094-3.554.052-4.738.654 1.187.568 5.57.387 6.873.017 0 0 .236-.12.355.111.356.112.712.224.831.456-.237.12-.473.24-.829.13l-.71.36c-1.302.37-2.84 1.446-3.667 2.16.711.223 2.131-.5 3.195-1.334a33.853 33.853 0 0 0-2.005 3.07c1.065-.249 2.954-2.967 3.07-3.904l.473-.241Z" fill="#468E0D"/><path d="m22.126 8.013.003-.011V7.99l-.075-4.72v-.01l-.001-.007c-.038-.173.045-.34.229-.476.184-.136.458-.23.764-.248.604-.035 1.308.226 1.65 1.008-.146.683-.23 1.357-.312 2.026v.002c-.085.679-.168 1.354-.317 2.037l-.007.033.02.028c1.917 2.794 2.128 5.84 1.183 8.593-.946 2.755-3.05 5.22-5.764 6.84-2.713 1.62-6.03 2.395-9.4 1.776-3.364-.617-6.788-2.625-9.717-6.58-.109-.454-.152-.833-.129-1.134.024-.305.115-.524.268-.667.154-.142.381-.22.702-.215.32.003.726.089 1.225.264 8.177 3.395 17.235.225 19.678-8.528Z" fill="#FFEE2E" stroke="#468E0D" stroke-width=".156"/></svg>