<svg width="38" height="31" fill="none" xmlns="http://www.w3.org/2000/svg"><path fill-rule="evenodd" clip-rule="evenodd" d="M9.789 7.479a22.085 22.085 0 0 0-.717.662c-1.4 1.347-2.646 2.888-3.541 4.613-.897 1.727-1.43 3.635-1.38 5.511.023.846.167 1.745.663 2.499.085.13.181.254.287.371l1.775 1.992.017.02c.204.229.448.428.73.582.425.23.928.352 1.462.307a3.297 3.297 0 0 0 1.283-.406 5.88 5.88 0 0 0 1.019-.72c.601-.515 1.09-1.035 1.607-1.372.926-.601 2.125-.774 3.334-.803 1.215-.029 2.52.067 3.889-.255 1.666-.392 3.21-1.393 4.308-2.741 1.095-1.347 1.721-3.002 1.798-4.629.08-1.71-.446-3.363-1.477-4.627a6.077 6.077 0 0 0-.183-.214l-1.792-2.011c-1.023-1.153-2.462-1.922-4.06-2.159-1.761-.26-3.623.127-5.295.895-1.367.63-2.607 1.501-3.726 2.485h-.001Zm.779.82c.079-.07.16-.139.24-.207.965-.816 2.007-1.521 3.119-2.033 1.478-.68 3.101-1.006 4.58-.786 1.411.209 2.7.928 3.562 1.987.863 1.058 1.311 2.468 1.244 3.9-.064 1.363-.597 2.764-1.502 3.877-.905 1.112-2.2 1.947-3.555 2.266-1.124.265-2.34.191-3.63.222-1.297.03-2.75.194-4.022 1.02-.713.464-1.238 1.04-1.755 1.482a4.58 4.58 0 0 1-.775.553c-.258.14-.523.229-.765.25a1.481 1.481 0 0 1-.82-.179 1.829 1.829 0 0 1-.64-.605c-.34-.515-.472-1.207-.491-1.94-.044-1.639.426-3.347 1.236-4.908.812-1.563 1.96-2.991 3.273-4.256.229-.22.462-.435.7-.644Zm.711.807c-.222.193-.439.394-.653.6-1.232 1.187-2.286 2.507-3.018 3.916-.728 1.402-1.137 2.92-1.1 4.331.017.626.139 1.122.327 1.408a.882.882 0 0 0 .293.286.442.442 0 0 0 .208.055.828.828 0 0 0 .27-.1c.141-.076.326-.207.543-.393.437-.374.996-1.002 1.896-1.587 1.603-1.042 3.296-1.196 4.679-1.228 1.36-.033 2.492.02 3.382-.19 1.06-.249 2.116-.927 2.836-1.813a5.547 5.547 0 0 0 1.221-3.16c.055-1.169-.32-2.346-1.023-3.208-.702-.861-1.776-1.461-2.924-1.631-1.209-.18-2.604.088-3.898.683-.98.45-1.923 1.084-2.816 1.84-.075.062-.149.126-.223.19Zm5.275 1.514c.425-.375.933-.624 1.412-.69.478-.066.889.056 1.14.338.252.282.324.702.2 1.168-.122.465-.43.938-.856 1.313-.21.186-.443.343-.686.461a2.426 2.426 0 0 1-.726.23 1.56 1.56 0 0 1-.655-.039 1.031 1.031 0 0 1-.485-.3 1.024 1.024 0 0 1-.24-.515 1.54 1.54 0 0 1 .04-.652c.06-.23.167-.465.314-.69a3.09 3.09 0 0 1 .542-.624Z" fill="#EE8383"/><path d="M33.916 10.344c-1.897 1.66-2.125 4.862-2.125 4.862-17.942-3.682-21.545 9.823-21.545 9.823s11.844 7.496 22.526-7.323c0 0 2.347 2.199 4.872 2.138 0 0-2.197-1.68-3.198-4.231-1-2.55-.53-5.269-.53-5.269ZM14.758 23.112c-.42.164-.909-.079-1.09-.542-.182-.463.012-.97.432-1.134.42-.163.909.079 1.09.542.182.463-.011.97-.432 1.134Zm4.053 2.072a.273.273 0 0 1-.353.217.344.344 0 0 1-.228-.395c.627-3.031-1.646-4.427-1.743-4.485a.345.345 0 0 1-.136-.434.274.274 0 0 1 .395-.119c.029.017 2.793 1.694 2.065 5.215Z" fill="#7A7871"/></svg>