<svg width="14" height="14" fill="none" xmlns="http://www.w3.org/2000/svg"><path d="M1 14a1 1 0 0 1-.707-1.707l12-12a1 1 0 1 1 1.414 1.414l-12 12A.997.997 0 0 1 1 14Z" fill="url(#a)"/><path d="M1 14a1 1 0 0 1-.707-1.707l12-12a1 1 0 1 1 1.414 1.414l-12 12A.997.997 0 0 1 1 14Z" fill="url(#b)"/><path d="M1 14a1 1 0 0 1-.707-1.707l12-12a1 1 0 1 1 1.414 1.414l-12 12A.997.997 0 0 1 1 14Z" fill="url(#c)"/><path d="M13 14a.997.997 0 0 1-.707-.293l-12-12A1 1 0 1 1 1.707.293l12 12A1 1 0 0 1 13 14Z" fill="url(#d)"/><path d="M13 14a.997.997 0 0 1-.707-.293l-12-12A1 1 0 1 1 1.707.293l12 12A1 1 0 0 1 13 14Z" fill="url(#e)"/><path d="M13 14a.997.997 0 0 1-.707-.293l-12-12A1 1 0 1 1 1.707.293l12 12A1 1 0 0 1 13 14Z" fill="url(#f)"/><defs><linearGradient id="a" x1="6.457" y1="15.35" x2="-11.364" y2="-2.943" gradientUnits="userSpaceOnUse"><stop offset=".065" stop-color="#FEBDAB" stop-opacity=".74"/><stop offset=".225" stop-color="#F3A9F8" stop-opacity=".66"/><stop offset=".456" stop-color="#E0D8F0"/><stop offset=".823" stop-color="#EAF7FE"/><stop offset=".991" stop-color="#EAF7FE"/></linearGradient><linearGradient id="b" x1="6.457" y1="15.35" x2="-11.364" y2="-2.943" gradientUnits="userSpaceOnUse"><stop offset=".065" stop-color="#FEBDAB" stop-opacity=".74"/><stop offset=".225" stop-color="#F3A9F8" stop-opacity=".66"/><stop offset=".456" stop-color="#E0D8F0"/><stop offset=".823" stop-color="#EAF7FE"/><stop offset=".991" stop-color="#EAF7FE"/></linearGradient><linearGradient id="c" x1="6.457" y1="15.35" x2="-11.364" y2="-2.943" gradientUnits="userSpaceOnUse"><stop offset=".065" stop-color="#FED290" stop-opacity=".7"/><stop offset=".614" stop-color="#FEBDAB"/><stop offset=".656" stop-color="#FED290" stop-opacity=".7"/></linearGradient><linearGradient id="d" x1="6.457" y1="15.35" x2="-11.364" y2="-2.943" gradientUnits="userSpaceOnUse"><stop offset=".065" stop-color="#FEBDAB" stop-opacity=".74"/><stop offset=".225" stop-color="#F3A9F8" stop-opacity=".66"/><stop offset=".456" stop-color="#E0D8F0"/><stop offset=".823" stop-color="#EAF7FE"/><stop offset=".991" stop-color="#EAF7FE"/></linearGradient><linearGradient id="e" x1="6.457" y1="15.35" x2="-11.364" y2="-2.943" gradientUnits="userSpaceOnUse"><stop offset=".065" stop-color="#FEBDAB" stop-opacity=".74"/><stop offset=".225" stop-color="#F3A9F8" stop-opacity=".66"/><stop offset=".456" stop-color="#E0D8F0"/><stop offset=".823" stop-color="#EAF7FE"/><stop offset=".991" stop-color="#EAF7FE"/></linearGradient><linearGradient id="f" x1="6.457" y1="15.35" x2="-11.364" y2="-2.943" gradientUnits="userSpaceOnUse"><stop offset=".065" stop-color="#FED290" stop-opacity=".7"/><stop offset=".614" stop-color="#FEBDAB"/><stop offset=".656" stop-color="#FED290" stop-opacity=".7"/></linearGradient></defs></svg>