<svg width="111" height="26" fill="none" xmlns="http://www.w3.org/2000/svg"><circle cx="13" cy="13" r="13" fill="#C4C4C4" fill-opacity=".5"/><path fill-rule="evenodd" clip-rule="evenodd" d="M17 7.75h-1.6c-1.102 0-1.067.393-1.067 1.112V10H17l-.533 3h-2.134v8H10.6v-8H9v-3h1.6V8.587C10.6 6.337 11.797 5 14.627 5H17v2.75Z" fill="#fff"/><path d="M45.594 15.977H40.82V21h-1.5V9.625h7.047v1.234H40.82v3.891h4.774v1.227ZM52.89 21c-.084-.167-.151-.463-.203-.89-.672.697-1.474 1.046-2.407 1.046-.833 0-1.518-.234-2.054-.703-.532-.474-.797-1.073-.797-1.797 0-.88.333-1.562 1-2.047.672-.49 1.614-.734 2.828-.734h1.406v-.664c0-.505-.151-.906-.453-1.203-.302-.302-.747-.453-1.336-.453-.516 0-.948.13-1.297.39s-.523.576-.523.946h-1.453c0-.422.148-.829.445-1.22.302-.395.708-.707 1.219-.937a4.127 4.127 0 0 1 1.695-.343c.974 0 1.737.244 2.289.734.552.484.839 1.154.86 2.008v3.89c0 .776.098 1.394.296 1.852V21H52.89Zm-2.399-1.102a2.54 2.54 0 0 0 1.29-.351c.406-.235.7-.54.882-.914v-1.735H51.53c-1.77 0-2.656.519-2.656 1.555 0 .453.151.807.453 1.063.302.255.69.382 1.164.382Zm9.274.079a2.08 2.08 0 0 0 1.351-.47c.386-.312.6-.702.64-1.171h1.368a2.621 2.621 0 0 1-.5 1.383 3.287 3.287 0 0 1-1.234 1.047 3.53 3.53 0 0 1-1.625.39c-1.151 0-2.068-.383-2.75-1.148-.677-.771-1.016-1.823-1.016-3.156v-.243c0-.823.151-1.554.453-2.195a3.46 3.46 0 0 1 1.297-1.492c.568-.354 1.237-.531 2.008-.531.948 0 1.734.284 2.36.851.63.568.965 1.305 1.007 2.211h-1.367c-.042-.547-.25-.995-.625-1.344-.37-.354-.828-.53-1.375-.53-.735 0-1.305.265-1.711.796-.401.526-.602 1.29-.602 2.29v.273c0 .974.2 1.724.602 2.25.4.526.974.789 1.719.789Zm8.492 1.18c-1.146 0-2.078-.376-2.797-1.126-.719-.755-1.078-1.763-1.078-3.023v-.266c0-.838.159-1.586.476-2.242.323-.662.771-1.177 1.344-1.547a3.38 3.38 0 0 1 1.875-.562c1.1 0 1.953.362 2.563 1.086.609.723.914 1.76.914 3.109v.602h-5.727c.021.833.263 1.507.727 2.023.468.51 1.062.766 1.78.766.511 0 .944-.105 1.298-.313.354-.208.664-.484.93-.828l.882.687c-.708 1.089-1.77 1.633-3.187 1.633Zm-.18-7.579c-.583 0-1.073.214-1.469.64-.395.423-.64 1.016-.734 1.782h4.234v-.11c-.041-.734-.24-1.302-.593-1.703-.355-.406-.834-.609-1.438-.609Zm12.313 3.29c0 1.29-.297 2.33-.891 3.116-.594.782-1.39 1.172-2.39 1.172-1.068 0-1.894-.377-2.477-1.133l-.07.977h-1.329V9h1.446v4.477c.583-.724 1.388-1.086 2.414-1.086 1.026 0 1.83.388 2.414 1.164.588.776.883 1.838.883 3.187v.125Zm-1.446-.165c0-.984-.19-1.745-.57-2.281-.38-.537-.927-.805-1.64-.805-.954 0-1.639.443-2.055 1.328v3.657c.442.885 1.132 1.328 2.07 1.328.693 0 1.232-.268 1.617-.805.386-.537.578-1.344.578-2.422Zm2.89-.008c0-.828.162-1.573.485-2.234.328-.662.782-1.172 1.36-1.531.583-.36 1.247-.54 1.992-.54 1.15 0 2.08.4 2.789 1.196.713.797 1.07 1.857 1.07 3.18v.101c0 .823-.159 1.563-.476 2.219a3.56 3.56 0 0 1-1.352 1.523c-.583.365-1.255.547-2.016.547-1.145 0-2.075-.398-2.789-1.195-.708-.797-1.062-1.852-1.062-3.164v-.102Zm1.454.172c0 .938.216 1.69.648 2.258.438.568 1.021.852 1.75.852.735 0 1.318-.287 1.75-.86.433-.578.649-1.385.649-2.422 0-.927-.221-1.677-.664-2.25-.438-.578-1.021-.867-1.75-.867-.714 0-1.29.284-1.727.852-.437.567-.656 1.38-.656 2.437Zm7.672-.172c0-.828.161-1.573.484-2.234.328-.662.782-1.172 1.36-1.531.583-.36 1.247-.54 1.992-.54 1.15 0 2.08.4 2.789 1.196.713.797 1.07 1.857 1.07 3.18v.101c0 .823-.159 1.563-.476 2.219a3.56 3.56 0 0 1-1.352 1.523c-.583.365-1.255.547-2.016.547-1.145 0-2.075-.398-2.789-1.195-.708-.797-1.062-1.852-1.062-3.164v-.102Zm1.453.172c0 .938.216 1.69.648 2.258.438.568 1.021.852 1.75.852.735 0 1.318-.287 1.75-.86.433-.578.649-1.385.649-2.422 0-.927-.221-1.677-.664-2.25-.438-.578-1.021-.867-1.75-.867-.714 0-1.29.284-1.727.852-.437.567-.656 1.38-.656 2.437Zm10.414.219-.906.945V21h-1.445V9h1.445v7.258l.773-.93 2.633-2.781h1.758l-3.289 3.531L107.469 21h-1.696l-2.945-3.914Z" fill="#fff"/></svg>