<svg width="110" height="26" fill="none" xmlns="http://www.w3.org/2000/svg"><circle cx="13" cy="13" r="13" fill="#C4C4C4" fill-opacity=".5"/><path fill-rule="evenodd" clip-rule="evenodd" d="M9.702 5.048c-.852.039-1.433.174-1.942.372a3.918 3.918 0 0 0-1.417.923A3.9 3.9 0 0 0 5.42 7.76c-.198.509-.333 1.09-.372 1.942C5.01 10.555 5 10.827 5 13s.01 2.445.048 3.298c.039.852.174 1.433.372 1.942.204.526.478.973.923 1.417.445.445.89.718 1.417.923.509.198 1.09.333 1.942.372.853.039 1.125.048 3.298.048s2.445-.01 3.299-.048c.851-.039 1.433-.174 1.942-.372a3.925 3.925 0 0 0 1.416-.923 3.92 3.92 0 0 0 .923-1.417c.198-.509.333-1.09.372-1.942.039-.853.048-1.125.048-3.298s-.009-2.445-.048-3.298c-.039-.852-.174-1.433-.372-1.942a3.923 3.923 0 0 0-.922-1.417 3.923 3.923 0 0 0-1.417-.923c-.51-.198-1.091-.333-1.942-.372C15.445 5.01 15.173 5 13 5s-2.445.01-3.298.048Zm.065 14.464c-.78-.036-1.203-.166-1.485-.276a2.482 2.482 0 0 1-.92-.598 2.479 2.479 0 0 1-.598-.92c-.11-.282-.24-.705-.276-1.485-.038-.844-.047-1.097-.047-3.233s.009-2.39.047-3.233c.036-.78.166-1.203.276-1.485a2.48 2.48 0 0 1 .598-.92c.28-.28.546-.454.92-.598.282-.11.705-.24 1.485-.276.844-.038 1.097-.047 3.233-.047s2.39.009 3.233.047c.78.036 1.203.166 1.485.276.374.144.64.318.92.598.28.28.453.546.599.92.11.282.24.705.275 1.485.039.844.046 1.097.046 3.233s-.007 2.389-.046 3.233c-.035.78-.166 1.203-.275 1.485-.146.373-.319.64-.599.92-.28.28-.546.453-.92.598-.282.11-.705.24-1.485.276-.844.038-1.097.046-3.233.046s-2.389-.008-3.233-.046Zm6.544-10.783a.96.96 0 1 0 1.92 0 .96.96 0 0 0-1.92 0ZM8.89 13a4.108 4.108 0 1 0 8.217 0 4.108 4.108 0 0 0-8.216 0Zm1.443 0a2.667 2.667 0 1 1 5.333 0 2.667 2.667 0 0 1-5.333 0Z" fill="#fff"/><path d="M40.93 19h-1.5V7.625h1.5V19Zm3.89-8.453.047 1.062c.646-.812 1.49-1.218 2.531-1.218 1.787 0 2.688 1.007 2.704 3.023V19h-1.446v-5.594c-.005-.61-.146-1.06-.422-1.351-.27-.292-.695-.438-1.273-.438-.469 0-.88.125-1.234.375-.355.25-.63.578-.829.985V19h-1.445v-8.453h1.367Zm12.383 6.21c0-.39-.148-.692-.445-.905-.292-.22-.805-.407-1.54-.563-.728-.156-1.31-.344-1.741-.562-.427-.22-.745-.48-.954-.782-.203-.302-.304-.661-.304-1.078 0-.693.291-1.279.875-1.758.588-.479 1.338-.718 2.25-.718.958 0 1.734.247 2.328.742.599.495.898 1.127.898 1.898h-1.453c0-.396-.17-.737-.508-1.023-.333-.287-.755-.43-1.265-.43-.526 0-.938.115-1.235.344a1.08 1.08 0 0 0-.445.898c0 .35.138.612.414.79.276.177.774.346 1.492.507.724.162 1.31.354 1.758.578.448.224.779.495.992.813.22.312.328.695.328 1.148 0 .756-.302 1.362-.906 1.82-.604.454-1.388.68-2.351.68-.677 0-1.276-.12-1.797-.36a2.952 2.952 0 0 1-1.227-1 2.453 2.453 0 0 1-.437-1.398h1.445c.026.485.219.87.578 1.157.365.28.844.422 1.438.422.547 0 .984-.11 1.312-.329.333-.224.5-.52.5-.89Zm5.29-8.257v2.047h1.577v1.117h-1.578v5.242c0 .339.07.594.211.766.14.166.38.25.719.25a3.5 3.5 0 0 0 .687-.094V19c-.38.104-.75.156-1.109.156-.646 0-1.133-.195-1.46-.586-.33-.39-.493-.945-.493-1.664v-5.242h-1.54v-1.117h1.54V8.5h1.445Zm8.49 10.5c-.083-.167-.15-.463-.203-.89-.672.697-1.474 1.046-2.406 1.046-.833 0-1.518-.234-2.055-.703-.53-.474-.797-1.073-.797-1.797 0-.88.334-1.562 1-2.047.672-.49 1.615-.734 2.829-.734h1.406v-.664c0-.505-.151-.906-.453-1.203-.302-.302-.748-.453-1.336-.453-.516 0-.948.13-1.297.39-.35.26-.524.576-.524.946h-1.453c0-.422.149-.829.446-1.22.302-.395.708-.707 1.218-.937a4.126 4.126 0 0 1 1.696-.343c.974 0 1.737.244 2.289.734.552.484.838 1.154.86 2.008v3.89c0 .776.098 1.394.296 1.852V19h-1.516Zm-2.398-1.102a2.54 2.54 0 0 0 1.289-.351c.406-.235.7-.54.883-.914v-1.735h-1.133c-1.77 0-2.656.519-2.656 1.555 0 .453.15.807.453 1.063.302.255.69.382 1.164.382Zm5.539-3.195c0-1.318.305-2.364.914-3.14.61-.782 1.417-1.172 2.422-1.172 1.031 0 1.836.364 2.414 1.093l.07-.937h1.32v8.25c0 1.094-.325 1.956-.976 2.586-.646.63-1.516.945-2.61.945-.609 0-1.205-.13-1.788-.39-.584-.26-1.029-.618-1.336-1.07l.75-.868c.62.766 1.377 1.148 2.273 1.148.703 0 1.25-.197 1.64-.593.397-.396.594-.953.594-1.672v-.727c-.578.667-1.367 1-2.367 1-.99 0-1.791-.398-2.406-1.195-.61-.797-.914-1.883-.914-3.258Zm1.453.164c0 .953.195 1.703.586 2.25.39.542.938.813 1.64.813.912 0 1.581-.414 2.008-1.242v-3.86c-.442-.807-1.106-1.21-1.992-1.21-.703 0-1.252.273-1.648.82-.396.546-.594 1.356-.594 2.43Zm11.961-3.023a4.328 4.328 0 0 0-.71-.055c-.949 0-1.592.404-1.93 1.211v6h-1.446v-8.453h1.406l.024.976c.474-.755 1.146-1.132 2.015-1.132.282 0 .495.036.641.109v1.344ZM93.781 19c-.083-.167-.15-.463-.203-.89-.672.697-1.474 1.046-2.406 1.046-.834 0-1.518-.234-2.055-.703-.531-.474-.797-1.073-.797-1.797 0-.88.334-1.562 1-2.047.672-.49 1.615-.734 2.828-.734h1.407v-.664c0-.505-.151-.906-.453-1.203-.303-.302-.748-.453-1.336-.453-.516 0-.948.13-1.297.39-.35.26-.524.576-.524.946h-1.453c0-.422.149-.829.445-1.22.303-.395.709-.707 1.22-.937a4.127 4.127 0 0 1 1.695-.343c.974 0 1.736.244 2.289.734.552.484.838 1.154.859 2.008v3.89c0 .776.099 1.394.297 1.852V19H93.78Zm-2.398-1.102c.453 0 .883-.117 1.289-.351.406-.235.7-.54.883-.914v-1.735h-1.133c-1.771 0-2.656.519-2.656 1.555 0 .453.15.807.453 1.063.302.255.69.382 1.164.382Zm7.242-7.351.04.937c.619-.729 1.455-1.093 2.507-1.093 1.182 0 1.987.453 2.414 1.359a3.211 3.211 0 0 1 1.094-.984c.453-.25.987-.375 1.601-.375 1.854 0 2.797.981 2.828 2.945V19h-1.445v-5.578c0-.604-.138-1.055-.414-1.352-.276-.302-.74-.453-1.391-.453-.536 0-.981.162-1.336.485-.354.317-.559.747-.617 1.289V19h-1.453v-5.54c0-1.228-.601-1.843-1.805-1.843-.947 0-1.596.404-1.945 1.211V19h-1.445v-8.453h1.367Z" fill="#fff"/></svg>