<svg width="89" height="26" fill="none" xmlns="http://www.w3.org/2000/svg"><circle cx="13" cy="13" r="13" fill="#C4C4C4" fill-opacity=".5"/><path d="M47.18 8.86h-3.657V19h-1.492V8.86h-3.648V7.624h8.797v1.234Zm8.492 8.148 1.625-6.461h1.445L56.282 19h-1.173l-2.054-6.406-2 6.406h-1.172l-2.453-8.453h1.437l1.664 6.328 1.969-6.328h1.164l2.008 6.46ZM61.789 19h-1.445v-8.453h1.445V19ZM60.227 8.305c0-.235.07-.433.21-.594.146-.162.36-.242.641-.242s.495.08.64.242a.85.85 0 0 1 .22.594c0 .234-.073.43-.22.586-.145.156-.359.234-.64.234s-.495-.078-.64-.234a.843.843 0 0 1-.211-.586Zm5.843.195v2.047h1.578v1.117H66.07v5.242c0 .339.07.594.211.766.14.166.38.25.719.25a3.5 3.5 0 0 0 .688-.094V19c-.38.104-.75.156-1.11.156-.646 0-1.133-.195-1.46-.586-.329-.39-.493-.945-.493-1.664v-5.242h-1.54v-1.117h1.54V8.5h1.445Zm5.235 0v2.047h1.578v1.117h-1.578v5.242c0 .339.07.594.21.766.141.166.38.25.72.25a3.5 3.5 0 0 0 .687-.094V19c-.38.104-.75.156-1.11.156-.645 0-1.132-.195-1.46-.586-.329-.39-.493-.945-.493-1.664v-5.242H68.32v-1.117h1.54V8.5h1.445Zm6.78 10.656c-1.145 0-2.077-.375-2.796-1.125-.719-.755-1.078-1.763-1.078-3.023v-.266c0-.838.159-1.586.477-2.242.322-.662.77-1.177 1.343-1.547a3.38 3.38 0 0 1 1.875-.562c1.1 0 1.953.362 2.563 1.086.61.723.914 1.76.914 3.109v.601h-5.727c.021.834.263 1.508.727 2.024.469.51 1.062.766 1.781.766.51 0 .943-.105 1.297-.313.354-.208.664-.484.93-.828l.882.687c-.708 1.089-1.77 1.633-3.187 1.633Zm-.179-7.578c-.583 0-1.073.214-1.469.64-.395.423-.64 1.016-.734 1.782h4.234v-.11c-.041-.734-.24-1.302-.593-1.703-.354-.406-.834-.609-1.438-.609Zm9.242.266a4.326 4.326 0 0 0-.71-.055c-.948 0-1.592.404-1.93 1.211v6h-1.445v-8.453h1.406l.023.976c.474-.755 1.146-1.132 2.016-1.132.281 0 .495.036.64.109v1.344Z" fill="#fff"/><path fill-rule="evenodd" clip-rule="evenodd" d="M21 7.657a6.201 6.201 0 0 1-1.885.557 3.511 3.511 0 0 0 1.443-1.956c-.634.405-1.337.7-2.085.858C17.875 6.429 17.022 6 16.077 6c-1.812 0-3.282 1.582-3.282 3.534 0 .277.029.547.085.806-2.728-.148-5.147-1.555-6.766-3.693a3.727 3.727 0 0 0-.445 1.777c0 1.226.58 2.308 1.46 2.942a3.095 3.095 0 0 1-1.486-.442v.044c0 1.712 1.131 3.14 2.633 3.465a3.066 3.066 0 0 1-1.483.06c.418 1.405 1.63 2.427 3.067 2.455-1.124.948-2.539 1.514-4.077 1.514-.265 0-.526-.017-.783-.05A8.818 8.818 0 0 0 10.032 20c6.038 0 9.34-5.386 9.34-10.056 0-.153-.004-.306-.01-.457A6.973 6.973 0 0 0 21 7.657Z" fill="#fff"/></svg>