<svg width="101" height="26" fill="none" xmlns="http://www.w3.org/2000/svg"><circle cx="13" cy="13" r="13" fill="#C4C4C4" fill-opacity=".5"/><path d="m42.79 14.336 2.968-5.711h1.703l-3.922 7.133V20h-1.5v-4.242l-3.922-7.133h1.719l2.953 5.71Zm5.015 1.36c0-.829.161-1.574.484-2.235.328-.662.781-1.172 1.36-1.531.583-.36 1.247-.54 1.992-.54 1.15 0 2.08.4 2.789 1.196.713.797 1.07 1.857 1.07 3.18v.101c0 .823-.159 1.563-.477 2.219a3.56 3.56 0 0 1-1.351 1.523c-.583.365-1.255.547-2.016.547-1.146 0-2.075-.398-2.789-1.195-.708-.797-1.062-1.852-1.062-3.164v-.102Zm1.453.171c0 .938.216 1.69.648 2.258.438.568 1.021.852 1.75.852.735 0 1.318-.287 1.75-.86.433-.578.649-1.385.649-2.422 0-.927-.222-1.677-.664-2.25-.438-.578-1.021-.867-1.75-.867-.714 0-1.29.284-1.727.852-.437.567-.656 1.38-.656 2.437Zm13.273 3.297c-.562.662-1.388.992-2.476.992-.901 0-1.589-.26-2.063-.781-.469-.526-.706-1.302-.71-2.328v-5.5h1.445v5.46c0 1.282.52 1.923 1.562 1.923 1.104 0 1.839-.412 2.203-1.235v-6.148h1.446V20h-1.376l-.03-.836ZM74.227 9.86H70.57V20h-1.492V9.86H65.43V8.624h8.797v1.234Zm5.93 9.305c-.563.662-1.389.992-2.477.992-.901 0-1.589-.26-2.063-.781-.469-.526-.706-1.302-.71-2.328v-5.5h1.445v5.46c0 1.282.52 1.923 1.562 1.923 1.104 0 1.839-.412 2.203-1.235v-6.148h1.445V20h-1.374l-.032-.836Zm10.765-3.297c0 1.292-.297 2.33-.89 3.117-.594.782-1.391 1.172-2.391 1.172-1.068 0-1.894-.377-2.477-1.133l-.07.977h-1.328V8h1.445v4.477c.583-.724 1.388-1.086 2.414-1.086 1.026 0 1.83.388 2.414 1.164.589.776.883 1.838.883 3.187v.125Zm-1.445-.164c0-.984-.19-1.745-.57-2.281-.381-.537-.928-.805-1.641-.805-.954 0-1.638.443-2.055 1.328v3.657c.443.885 1.133 1.328 2.07 1.328.693 0 1.232-.268 1.617-.805.386-.537.579-1.344.579-2.422Zm6.78 4.453c-1.145 0-2.077-.375-2.796-1.125-.719-.755-1.078-1.763-1.078-3.023v-.266c0-.838.159-1.586.476-2.242.323-.662.771-1.177 1.344-1.547a3.38 3.38 0 0 1 1.875-.562c1.1 0 1.953.362 2.563 1.086.609.723.914 1.76.914 3.109v.601h-5.727c.021.834.263 1.508.727 2.024.468.51 1.062.766 1.78.766.511 0 .944-.105 1.298-.313.354-.208.664-.484.93-.828l.882.687c-.708 1.089-1.77 1.633-3.187 1.633Zm-.179-7.578c-.583 0-1.073.214-1.469.64-.395.423-.64 1.016-.734 1.782h4.234v-.11c-.041-.734-.24-1.302-.593-1.703-.355-.406-.834-.609-1.438-.609Z" fill="#fff"/><path fill-rule="evenodd" clip-rule="evenodd" d="m16.006 11.773-4.512-2.256s-1.254-.57-1.254.502v5.012s.024.764 1.254.25c.856-.357 4.512-2.255 4.512-2.255s.933-.598 0-1.253Zm5.515 5.012c-.559 1.59-1.754 1.795-2.757 2.005-1.479.31-10.992.271-12.535-.25-.962-.326-1.554-.466-2.005-2.757-.289-1.466-.308-5.78 0-7.268.298-1.44 1.047-2.117 2.507-2.256 3.92-.371 10.474-.319 12.534 0 1.91.296 2.309 1.435 2.507 2.506.32 1.735.358 6.287-.25 8.02Z" fill="#fff"/></svg>